<svg width="48" height="48" viewBox="0 0 48 48" fill="none" xmlns="http://www.w3.org/2000/svg">
<path d="M16.501 4.5V10.5" stroke="#236C44" stroke-width="3" stroke-linecap="round" stroke-linejoin="round"/>
<path d="M22.5 4.5V10.5" stroke="#236C44" stroke-width="3" stroke-linecap="round" stroke-linejoin="round"/>
<path d="M28.499 4.5V10.5" stroke="#236C44" stroke-width="3" stroke-linecap="round" stroke-linejoin="round"/>
<path d="M5.99902 40.5H38.999" stroke="#236C44" stroke-width="3" stroke-linecap="round" stroke-linejoin="round"/>
<path d="M15.6178 40.4998C12.7469 39.1824 10.3145 37.0688 8.60943 34.4098C6.90439 31.7509 5.99838 28.6584 5.99902 25.4998V16.4998H38.999V25.4998C38.9997 28.6584 38.0937 31.7509 36.3886 34.4098C34.6836 37.0688 32.2511 39.1824 29.3803 40.4998" stroke="#236C44" stroke-width="3" stroke-linecap="round" stroke-linejoin="round"/>
<path d="M38.9998 16.4998C40.5911 16.4998 42.1172 17.1319 43.2424 18.2571C44.3677 19.3823 44.9998 20.9085 44.9998 22.4998V23.9998C44.9998 25.5911 44.3677 27.1172 43.2424 28.2424C42.1172 29.3676 40.5911 29.9998 38.9998 29.9998H38.3623" stroke="#236C44" stroke-width="3" stroke-linecap="round" stroke-linejoin="round"/>
</svg>
