<svg width="40" height="40" viewBox="0 0 40 40" fill="none" xmlns="http://www.w3.org/2000/svg">
<path d="M8.73624 18.855C4.70003 18.855 1.96973 16.0423 1.96973 11.8747C1.96973 8.12439 5.10185 5 9.34412 5C13.9908 5 17.4243 8.7503 17.4243 14.4788C17.4243 27.4992 7.93003 32.7074 1.96973 33.3333V27.6048C6.01109 26.8759 10.5547 22.8139 10.7582 18.3321C10.5547 18.4352 9.74851 18.855 8.73624 18.855Z" fill="#236C44"/>
<path d="M29.3427 18.855C25.3039 18.855 22.5762 16.0423 22.5762 11.8747C22.5762 8.12439 25.7083 5 29.9506 5C34.5972 5 38.0307 8.7503 38.0307 14.4788C38.0307 27.4992 28.5365 32.7074 22.5762 33.3333V27.6048C26.6175 26.8759 31.1612 22.8139 31.3647 18.3321C31.1612 18.4352 30.355 18.855 29.3427 18.855Z" fill="#236C44"/>
</svg>
