<svg width="184" height="184" viewBox="0 0 184 184" fill="none" xmlns="http://www.w3.org/2000/svg">
<g filter="url(#filter0_d_1833_15352)">
<rect x="48" y="32" width="88" height="88" rx="44" fill="#F3DB61" shape-rendering="crispEdges"/>
<path d="M101.384 75.3624L87.8937 67.1124C87.7802 67.0424 87.65 67.0039 87.5166 67.0009C87.3832 66.998 87.2514 67.0307 87.1349 67.0956C87.0183 67.1606 86.9212 67.2555 86.8535 67.3705C86.7859 67.4855 86.7501 67.6165 86.75 67.7499V84.2499C86.7501 84.3833 86.7859 84.5143 86.8535 84.6293C86.9212 84.7443 87.0183 84.8392 87.1349 84.9042C87.2514 84.9692 87.3832 85.0018 87.5166 84.9989C87.65 84.9959 87.7802 84.9575 87.8937 84.8874L101.384 76.6374C101.495 76.5719 101.587 76.4787 101.651 76.3669C101.714 76.2551 101.748 76.1286 101.748 75.9999C101.748 75.8712 101.714 75.7447 101.651 75.6329C101.587 75.5212 101.495 75.4279 101.384 75.3624Z" fill="#236C44" stroke="#236C44" stroke-width="1.5" stroke-linecap="round" stroke-linejoin="round"/>
</g>
<defs>
<filter id="filter0_d_1833_15352" x="0" y="0" width="184" height="184" filterUnits="userSpaceOnUse" color-interpolation-filters="sRGB">
<feFlood flood-opacity="0" result="BackgroundImageFix"/>
<feColorMatrix in="SourceAlpha" type="matrix" values="0 0 0 0 0 0 0 0 0 0 0 0 0 0 0 0 0 0 127 0" result="hardAlpha"/>
<feOffset dy="16"/>
<feGaussianBlur stdDeviation="24"/>
<feComposite in2="hardAlpha" operator="out"/>
<feColorMatrix type="matrix" values="0 0 0 0 0 0 0 0 0 0 0 0 0 0 0 0 0 0 0.24 0"/>
<feBlend mode="normal" in2="BackgroundImageFix" result="effect1_dropShadow_1833_15352"/>
<feBlend mode="normal" in="SourceGraphic" in2="effect1_dropShadow_1833_15352" result="shape"/>
</filter>
</defs>
</svg>
